<mxfile host="Electron" modified="2023-11-17T16:58:05.865Z" agent="Mozilla/5.0 (X11; Linux x86_64) AppleWebKit/537.36 (KHTML, like Gecko) draw.io/22.0.3 Chrome/114.0.5735.289 Electron/25.8.4 Safari/537.36" etag="pin22ZOvViO-T4vv_OHs" version="22.0.3" type="device">
  <diagram name="Page-1" id="iqcBRzo8heE-HI_06czE">
    <mxGraphModel dx="1434" dy="857" grid="1" gridSize="10" guides="1" tooltips="1" connect="1" arrows="1" fold="1" page="1" pageScale="1" pageWidth="850" pageHeight="1100" math="0" shadow="0">
      <root>
        <mxCell id="0" />
        <mxCell id="1" parent="0" />
        <mxCell id="4QY3Jrd2F4q06G6leLuA-3" style="edgeStyle=orthogonalEdgeStyle;rounded=0;orthogonalLoop=1;jettySize=auto;html=1;entryX=0;entryY=0.5;entryDx=0;entryDy=0;" edge="1" parent="1" source="4QY3Jrd2F4q06G6leLuA-1" target="4QY3Jrd2F4q06G6leLuA-2">
          <mxGeometry relative="1" as="geometry" />
        </mxCell>
        <mxCell id="4QY3Jrd2F4q06G6leLuA-1" value="Dbus input" style="text;html=1;strokeColor=none;fillColor=none;align=center;verticalAlign=middle;whiteSpace=wrap;rounded=0;" vertex="1" parent="1">
          <mxGeometry y="160" width="80" height="40" as="geometry" />
        </mxCell>
        <mxCell id="4QY3Jrd2F4q06G6leLuA-2" value="queue" style="text;html=1;strokeColor=none;fillColor=none;align=center;verticalAlign=middle;whiteSpace=wrap;rounded=0;" vertex="1" parent="1">
          <mxGeometry x="80" y="200" width="80" height="40" as="geometry" />
        </mxCell>
        <mxCell id="4QY3Jrd2F4q06G6leLuA-5" style="edgeStyle=orthogonalEdgeStyle;rounded=0;orthogonalLoop=1;jettySize=auto;html=1;" edge="1" parent="1" source="4QY3Jrd2F4q06G6leLuA-4" target="4QY3Jrd2F4q06G6leLuA-2">
          <mxGeometry relative="1" as="geometry" />
        </mxCell>
        <mxCell id="4QY3Jrd2F4q06G6leLuA-7" style="edgeStyle=orthogonalEdgeStyle;rounded=0;orthogonalLoop=1;jettySize=auto;html=1;entryX=0;entryY=0.5;entryDx=0;entryDy=0;" edge="1" parent="1" source="4QY3Jrd2F4q06G6leLuA-4" target="4QY3Jrd2F4q06G6leLuA-6">
          <mxGeometry relative="1" as="geometry" />
        </mxCell>
        <mxCell id="4QY3Jrd2F4q06G6leLuA-9" style="edgeStyle=orthogonalEdgeStyle;rounded=0;orthogonalLoop=1;jettySize=auto;html=1;entryX=0;entryY=0.5;entryDx=0;entryDy=0;" edge="1" parent="1" source="4QY3Jrd2F4q06G6leLuA-4" target="4QY3Jrd2F4q06G6leLuA-8">
          <mxGeometry relative="1" as="geometry" />
        </mxCell>
        <mxCell id="4QY3Jrd2F4q06G6leLuA-4" value="handler" style="text;html=1;strokeColor=none;fillColor=none;align=center;verticalAlign=middle;whiteSpace=wrap;rounded=0;" vertex="1" parent="1">
          <mxGeometry x="240" y="200" width="80" height="40" as="geometry" />
        </mxCell>
        <mxCell id="4QY3Jrd2F4q06G6leLuA-13" style="edgeStyle=orthogonalEdgeStyle;rounded=0;orthogonalLoop=1;jettySize=auto;html=1;" edge="1" parent="1" source="4QY3Jrd2F4q06G6leLuA-6" target="4QY3Jrd2F4q06G6leLuA-10">
          <mxGeometry relative="1" as="geometry" />
        </mxCell>
        <mxCell id="4QY3Jrd2F4q06G6leLuA-6" value="T db 1" style="text;html=1;strokeColor=none;fillColor=none;align=center;verticalAlign=middle;whiteSpace=wrap;rounded=0;" vertex="1" parent="1">
          <mxGeometry x="320" y="240" width="80" height="40" as="geometry" />
        </mxCell>
        <mxCell id="4QY3Jrd2F4q06G6leLuA-12" style="edgeStyle=orthogonalEdgeStyle;rounded=0;orthogonalLoop=1;jettySize=auto;html=1;" edge="1" parent="1" source="4QY3Jrd2F4q06G6leLuA-8" target="4QY3Jrd2F4q06G6leLuA-11">
          <mxGeometry relative="1" as="geometry" />
        </mxCell>
        <mxCell id="4QY3Jrd2F4q06G6leLuA-8" value="T db 2" style="text;html=1;strokeColor=none;fillColor=none;align=center;verticalAlign=middle;whiteSpace=wrap;rounded=0;" vertex="1" parent="1">
          <mxGeometry x="320" y="320" width="80" height="40" as="geometry" />
        </mxCell>
        <mxCell id="4QY3Jrd2F4q06G6leLuA-15" style="edgeStyle=orthogonalEdgeStyle;rounded=0;orthogonalLoop=1;jettySize=auto;html=1;entryX=0;entryY=0.5;entryDx=0;entryDy=0;" edge="1" parent="1" source="4QY3Jrd2F4q06G6leLuA-10" target="4QY3Jrd2F4q06G6leLuA-14">
          <mxGeometry relative="1" as="geometry" />
        </mxCell>
        <mxCell id="4QY3Jrd2F4q06G6leLuA-10" value="query" style="text;html=1;strokeColor=none;fillColor=none;align=center;verticalAlign=middle;whiteSpace=wrap;rounded=0;" vertex="1" parent="1">
          <mxGeometry x="440" y="240" width="80" height="40" as="geometry" />
        </mxCell>
        <mxCell id="4QY3Jrd2F4q06G6leLuA-17" style="edgeStyle=orthogonalEdgeStyle;rounded=0;orthogonalLoop=1;jettySize=auto;html=1;entryX=0;entryY=0.5;entryDx=0;entryDy=0;" edge="1" parent="1" source="4QY3Jrd2F4q06G6leLuA-11" target="4QY3Jrd2F4q06G6leLuA-16">
          <mxGeometry relative="1" as="geometry" />
        </mxCell>
        <mxCell id="4QY3Jrd2F4q06G6leLuA-11" value="query" style="text;html=1;strokeColor=none;fillColor=none;align=center;verticalAlign=middle;whiteSpace=wrap;rounded=0;" vertex="1" parent="1">
          <mxGeometry x="440" y="320" width="80" height="40" as="geometry" />
        </mxCell>
        <mxCell id="4QY3Jrd2F4q06G6leLuA-14" value="Result" style="text;html=1;strokeColor=none;fillColor=none;align=center;verticalAlign=middle;whiteSpace=wrap;rounded=0;" vertex="1" parent="1">
          <mxGeometry x="560" y="240" width="80" height="40" as="geometry" />
        </mxCell>
        <mxCell id="4QY3Jrd2F4q06G6leLuA-19" style="edgeStyle=orthogonalEdgeStyle;rounded=0;orthogonalLoop=1;jettySize=auto;html=1;" edge="1" parent="1" source="4QY3Jrd2F4q06G6leLuA-16">
          <mxGeometry relative="1" as="geometry">
            <mxPoint x="600" y="440" as="targetPoint" />
          </mxGeometry>
        </mxCell>
        <mxCell id="4QY3Jrd2F4q06G6leLuA-16" value="Result" style="text;html=1;strokeColor=none;fillColor=none;align=center;verticalAlign=middle;whiteSpace=wrap;rounded=0;" vertex="1" parent="1">
          <mxGeometry x="560" y="320" width="80" height="40" as="geometry" />
        </mxCell>
        <mxCell id="4QY3Jrd2F4q06G6leLuA-20" value="queue&lt;br&gt;thread" style="text;html=1;strokeColor=none;fillColor=none;align=center;verticalAlign=middle;whiteSpace=wrap;rounded=0;" vertex="1" parent="1">
          <mxGeometry x="360" y="280" width="80" height="40" as="geometry" />
        </mxCell>
      </root>
    </mxGraphModel>
  </diagram>
</mxfile>
